PathFileType	4	(x/y/z)	S08_PSF_T11
DataRate	CameraRate	NumFrames	NumMarkers	Units	OrigDataRate	OrigDataStartFrame	OrigNumFrames
240	240	10	51	mm	240	276	440
Frame#	Time	Sternum			R.Acromium			L.Acromium			Top.Head			R.ASIS			L.ASIS			R.PSIS			L.PSIS			R.Great.Tro			L.Great.Tro			R.Iliac.Crest			L.Iliac.Crest			V.Sacral			R.Thigh.Upper.Post			R.Thigh.Lower.Ant			R.Thigh.Lower.Post			R.Thigh.Upper.Ant			R.Knee.Lat			R.Knee.Med			R.Shank.Upper.Post			R.Shank.Lower.Ant			R.Shank.Lower.Post			R.Shank.Upper.Ant			R.Ankle.Lat			R.Ankle.Med			R.Heel.Upper			R.Heel.Med			R.Heel.Lat			R.Toe.Lat			R.Toe.Med			R.Toe.Tip			L.Thigh.Upper.Post			L.Thigh.Lower.Ant			L.Thigh.Lower.Post			L.Thigh.Upper.Ant			L.Knee.Lat			L.Knee.Med			L.Shank.Upper.Post			L.Shank.Lower.Ant			L.Shank.Lower.Post			L.Shank.Upper.Ant			L.Ankle.Lat			L.Ankle.Med			L.Heel.Upper			L.Heel.Med			L.Heel.Lat			L.Toe.Lat			L.Toe.Med			L.Toe.Tip			Cervical.Spine			Back			
		X1	Y1	Z1	X2	Y2	Z2	X3	Y3	Z3	X4	Y4	Z4	X5	Y5	Z5	X6	Y6	Z6	X7	Y7	Z7	X8	Y8	Z8	X9	Y9	Z9	X10	Y10	Z10	X11	Y11	Z11	X12	Y12	Z12	X13	Y13	Z13	X14	Y14	Z14	X15	Y15	Z15	X16	Y16	Z16	X17	Y17	Z17	X18	Y18	Z18	X19	Y19	Z19	X20	Y20	Z20	X21	Y21	Z21	X22	Y22	Z22	X23	Y23	Z23	X24	Y24	Z24	X25	Y25	Z25	X26	Y26	Z26	X27	Y27	Z27	X28	Y28	Z28	X29	Y29	Z29	X30	Y30	Z30	X31	Y31	Z31	X32	Y32	Z32	X33	Y33	Z33	X34	Y34	Z34	X35	Y35	Z35	X36	Y36	Z36	X37	Y37	Z37	X38	Y38	Z38	X39	Y39	Z39	X40	Y40	Z40	X41	Y41	Z41	X42	Y42	Z42	X43	Y43	Z43	X44	Y44	Z44	X45	Y45	Z45	X46	Y46	Z46	X47	Y47	Z47	X48	Y48	Z48	X49	Y49	Z49	X50	Y50	Z50	X51	Y51	Z51	

276	1.1458	10.531	1202.9	319.07	-93.731	1444.8	492.19	-117.54	1465.9	155.69	-106.23	1758.1	334.46	-15.938	990.62	435.76	-9.4506	1000.1	203.55	-213.73	1016.6	352.25	-208.97	1021.9	258.88	-100.22	882.46	499.52	-87.461	892.15	131.5	-111.98	1060	477.6	-103.54	1079.3	169.01	-227.96	979.17	303.48	-155.09	690.84	483.99	-91.098	580.32	461.01	-159.72	600.94	466.2	-78.263	673.7	479.38	-149.14	491.03	452.96	-153.27	494.36	324.59	-313.96	387.92	450.59	-306.43	299	434.56	-364.04	329.92	442.83	-256.28	358.21	445.93	-470.1	198.4	405.74	-430.1	189.13	331.08	-520.36	205.41	352.08	-527.99	182.02	321.92	-538.19	183.85	383.11	NaN	NaN	NaN	-401.85	57.887	317.11	-351.05	38.997	365.32	-32.732	686.52	149.99	77.273	630.87	177.9	11.902	609.51	170.26	37.24	706.82	152.1	63.491	519.6	192.22	58.764	520.59	317.27	42.769	331.78	189.44	123.7	258.93	216.23	52.413	259.83	205.3	107.48	332.19	200.19	102.56	96.111	223.37	125.51	106.16	309.9	52.766	73.89	275.11	68.798	39.902	306.43	61.856	45.815	242.9	238.18	43.851	211.59	255.93	49.818	324.41	318.54	73.541	277.49	-171.11	1501.8	321.27	-223.95	1219.4	337.68
277	1.15	16.364	1203.7	318.53	-88.157	1445.5	491.72	-111.99	1466.5	155.27	-100.61	1758.8	333.96	-9.638	991.14	434.97	-3.6909	1001	202.82	-207.66	1017.1	352.16	-203.12	1022.7	258.79	-93.247	882.48	498.92	-81.771	893.14	130.9	-105.64	1060.4	477.22	-97.93	1080.1	168.6	-221.96	979.77	303.32	-146.47	690.26	483.88	-81.503	580.27	461.13	-150.3	600.29	466.36	-69.5	673.83	479.2	-138.75	490.62	453.42	-142.49	493.48	324.89	-304.34	389.52	451.21	-297.99	300.45	435.36	-355.3	332.23	443.68	-247.06	359.01	446.57	-462.8	202.43	407.11	-423.11	192.21	332.17	-512.06	211.63	353.42	-520.75	188.8	323.1	-530.81	190.64	384.35	NaN	NaN	NaN	-399.44	59.848	317.57	-349.81	38.633	365.52	-27.258	687.27	149.31	82.525	631.38	177.54	17.144	610.16	169.69	42.747	707.44	151.7	68.244	519.95	191.9	63.238	521.04	316.93	45.917	332.26	189.08	126.09	258.7	216.25	54.874	260.23	205.04	110.59	332.1	200.04	103.08	96.188	223.51	126.07	105.95	310.02	53.062	74.101	275.17	68.895	40	306.45	62.002	46.006	242.91	238.45	43.228	211.55	256.22	48.718	324.46	319.07	72.028	277.6	-165.64	1502.3	320.83	-218.13	1219.9	337.33
278	1.1542	22.164	1204.5	318	-82.6	1446.1	491.27	-106.46	1467.2	154.88	-95.003	1759.4	333.47	-3.3904	991.67	434.18	2.0291	1001.9	202.08	-201.64	1017.6	352.08	-197.31	1023.4	258.7	-86.307	882.52	498.33	-76.13	894.14	130.3	-99.351	1060.8	476.83	-92.375	1081	168.19	-216.01	980.38	303.14	-137.81	689.7	483.76	-71.852	580.28	461.23	-140.82	599.68	466.51	-60.703	674.01	479.02	-128.25	490.26	453.86	-131.62	492.65	325.17	-294.53	391.12	451.82	-289.35	301.94	436.15	-346.35	334.54	444.53	-237.65	359.85	447.2	-455.23	206.48	408.51	-415.89	195.31	333.26	-503.46	217.82	354.79	-513.17	195.57	324.33	-523.08	197.44	385.63	NaN	NaN	NaN	-396.8	61.949	318.07	-348.37	38.285	365.76	-21.924	688.02	148.65	87.624	631.84	177.17	22.221	610.79	169.13	48.121	708	151.28	72.823	520.28	191.58	67.558	521.48	316.6	48.921	332.72	188.74	128.36	258.47	216.27	57.203	260.62	204.81	113.55	332.02	199.9	103.55	96.283	223.65	126.57	105.75	310.15	53.316	74.283	275.24	68.981	40.084	306.48	62.132	46.176	242.92	238.69	42.719	211.49	256.46	47.749	324.51	319.55	70.684	277.69	-160.18	1502.9	320.41	-212.33	1220.4	336.98
279	1.1583	27.93	1205.3	317.49	-77.059	1446.8	490.83	-100.94	1468	154.49	-89.407	1760.1	332.99	2.8024	992.22	433.4	7.7098	1002.8	201.33	-195.68	1018.2	351.98	-191.54	1024.1	258.6	-79.404	882.59	497.74	-70.54	895.12	129.7	-93.116	1061.2	476.44	-86.877	1081.9	167.77	-210.11	980.98	302.97	-129.13	689.19	483.63	-62.156	580.35	461.31	-131.29	599.13	466.66	-51.88	674.24	478.83	-117.65	489.95	454.27	-120.66	491.89	325.41	-284.55	392.72	452.42	-280.52	303.45	436.91	-337.2	336.84	445.37	-228.07	360.71	447.81	-447.41	210.52	409.92	-408.45	198.43	334.35	-494.56	223.97	356.19	-505.27	202.31	325.59	-515.01	204.22	386.97	NaN	NaN	NaN	-393.9	64.181	318.62	-346.7	37.961	366.04	-16.738	688.74	148.01	92.562	632.25	176.79	27.126	611.38	168.58	53.354	708.53	150.84	77.223	520.58	191.26	71.718	521.9	316.27	51.784	333.16	188.43	130.5	258.26	216.29	59.402	261.01	204.61	116.37	331.92	199.77	103.96	96.391	223.81	127	105.58	310.29	53.533	74.437	275.31	69.057	40.152	306.51	62.247	46.326	242.94	238.89	42.309	211.43	256.68	46.896	324.55	319.96	69.496	277.77	-154.74	1503.4	320	-206.58	1220.9	336.64
280	1.1625	33.662	1206.1	317	-71.534	1447.5	490.41	-95.447	1468.7	154.13	-83.824	1760.7	332.52	8.9388	992.77	432.62	13.352	1003.7	200.59	-189.77	1018.7	351.88	-185.82	1024.9	258.5	-72.545	882.68	497.15	-65.002	896.1	129.11	-86.939	1061.7	476.04	-81.439	1082.7	167.35	-204.25	981.59	302.78	-120.42	688.71	483.49	-52.427	580.49	461.37	-121.73	598.62	466.79	-43.041	674.54	478.64	-106.96	489.7	454.66	-109.65	491.21	325.61	-274.41	394.32	453.02	-271.5	304.98	437.64	-327.85	339.13	446.19	-218.32	361.6	448.39	-439.35	214.54	411.34	-400.79	201.54	335.42	-485.4	230.05	357.61	-497.06	208.98	326.89	-506.64	210.93	388.34	NaN	NaN	NaN	-390.72	66.531	319.2	-344.78	37.673	366.37	-11.704	689.45	147.4	97.332	632.6	176.41	31.853	611.94	168.07	58.441	709	150.4	81.443	520.85	190.96	75.718	522.3	315.96	54.504	333.59	188.15	132.52	258.04	216.32	61.474	261.39	204.45	119.05	331.82	199.65	104.33	96.51	223.99	127.38	105.43	310.45	53.717	74.567	275.39	69.124	40.208	306.55	62.348	46.46	242.97	239.06	41.984	211.37	256.87	46.15	324.59	320.31	68.446	277.84	-149.31	1504	319.62	-200.85	1221.4	336.31
281	1.1667	39.358	1207	316.53	-66.026	1448.2	490.02	-89.971	1469.5	153.77	-78.255	1761.4	332.07	15.018	993.34	431.85	18.956	1004.6	199.85	-183.91	1019.3	351.77	-180.15	1025.6	258.39	-65.735	882.81	496.57	-59.52	897.06	128.52	-80.822	1062.1	475.64	-76.059	1083.6	166.94	-198.44	982.19	302.59	-111.7	688.29	483.33	-42.674	580.7	461.41	-112.14	598.18	466.91	-34.191	674.9	478.43	-96.206	489.53	455.02	-98.605	490.63	325.78	-264.11	395.92	453.6	-262.3	306.54	438.35	-318.32	341.4	447	-208.42	362.53	448.94	-431.05	218.52	412.76	-392.93	204.65	336.48	-476	236.02	359.03	-488.58	215.55	328.22	-497.97	217.55	389.74	NaN	NaN	NaN	-387.23	68.985	319.82	-342.55	37.436	366.74	-6.8271	690.14	146.82	101.93	632.88	176.01	36.398	612.47	167.58	63.38	709.42	149.95	85.482	521.1	190.66	79.559	522.68	315.66	57.085	333.99	187.91	134.42	257.83	216.34	63.425	261.75	204.31	121.59	331.72	199.53	104.66	96.635	224.16	127.71	105.29	310.61	53.872	74.675	275.47	69.183	40.252	306.6	62.438	46.579	243	239.21	41.731	211.3	257.04	45.497	324.63	320.62	67.52	277.89	-143.9	1504.6	319.25	-195.16	1222	335.98
282	1.1708	45.017	1207.8	316.08	-60.534	1448.9	489.64	-84.514	1470.2	153.43	-72.699	1762.2	331.63	21.038	993.92	431.09	24.523	1005.4	199.11	-178.11	1019.8	351.65	-174.51	1026.4	258.26	-58.982	882.96	495.99	-54.092	898	127.94	-74.77	1062.6	475.23	-70.736	1084.5	166.53	-192.69	982.8	302.39	-102.97	687.92	483.14	-32.903	580.99	461.43	-102.52	597.8	467.01	-25.338	675.33	478.22	-85.382	489.43	455.34	-87.544	490.16	325.9	-253.66	397.51	454.18	-252.93	308.11	439.02	-308.61	343.66	447.78	-198.38	363.48	449.46	-422.54	222.46	414.17	-384.87	207.74	337.52	-466.39	241.86	360.46	-479.84	221.96	329.56	-489.04	224.03	391.16	NaN	NaN	NaN	-383.41	71.527	320.48	-339.99	37.264	367.15	-2.106	690.8	146.27	106.37	633.11	175.62	40.762	612.96	167.13	68.17	709.8	149.49	89.34	521.32	190.37	83.245	523.04	315.36	59.526	334.37	187.7	136.21	257.63	216.37	65.257	262.1	204.2	123.99	331.6	199.42	104.95	96.764	224.35	128	105.16	310.77	54.001	74.764	275.54	69.235	40.287	306.64	62.517	46.686	243.03	239.34	41.537	211.23	257.18	44.927	324.67	320.88	66.703	277.94	-138.49	1505.3	318.9	-189.51	1222.6	335.65
283	1.175	50.64	1208.6	315.65	-55.058	1449.6	489.28	-79.079	1471	153.11	-67.157	1762.9	331.2	26.999	994.5	430.35	30.054	1006.3	198.38	-172.37	1020.4	351.51	-168.92	1027.1	258.13	-52.289	883.16	495.42	-48.721	898.91	127.38	-68.783	1063	474.82	-65.466	1085.3	166.13	-186.98	983.4	302.18	-94.241	687.61	482.93	-23.124	581.36	461.41	-92.896	597.5	467.09	-16.487	675.83	478.01	-74.505	489.42	455.62	-76.491	489.81	325.99	-243.09	399.1	454.74	-243.39	309.7	439.65	-298.72	345.88	448.54	-188.2	364.46	449.94	-413.82	226.32	415.56	-376.61	210.8	338.53	-456.59	247.53	361.88	-470.87	228.2	330.92	-479.86	230.34	392.59	NaN	NaN	NaN	-379.23	74.14	321.17	-337.06	37.177	367.61	2.4604	691.45	145.77	110.64	633.28	175.21	44.946	613.41	166.71	72.813	710.12	149.03	93.019	521.51	190.1	86.781	523.37	315.07	61.831	334.73	187.53	137.88	257.42	216.39	66.974	262.44	204.12	126.25	331.48	199.31	105.22	96.896	224.53	128.26	105.04	310.94	54.109	74.836	275.62	69.28	40.313	306.69	62.586	46.782	243.06	239.44	41.392	211.15	257.3	44.43	324.71	321.1	65.981	277.97	-133.1	1505.9	318.57	-183.89	1223.2	335.33
284	1.1792	56.225	1209.4	315.24	-49.598	1450.3	488.94	-73.665	1471.8	152.8	-61.63	1763.6	330.78	32.902	995.1	429.63	35.551	1007.2	197.66	-166.68	1021	351.37	-163.36	1027.8	257.99	-45.661	883.39	494.86	-43.406	899.81	126.83	-62.865	1063.5	474.41	-60.241	1086.2	165.74	-181.33	984.01	301.96	-85.509	687.36	482.69	-13.342	581.82	461.37	-83.258	597.28	467.13	-7.6428	676.4	477.78	-63.583	489.49	455.87	-65.464	489.58	326.04	-232.4	400.68	455.3	-233.7	311.29	440.25	-288.68	348.06	449.27	-177.89	365.47	450.38	-404.91	230.1	416.91	-368.18	213.84	339.52	-446.64	253	363.27	-461.69	234.22	332.27	-470.47	236.43	394.03	NaN	NaN	NaN	-374.67	76.805	321.89	-333.7	37.193	368.09	6.8757	692.08	145.3	114.74	633.39	174.81	48.957	613.84	166.33	77.311	710.39	148.56	96.521	521.68	189.83	90.175	523.68	314.79	64.003	335.07	187.4	139.45	257.22	216.4	68.581	262.76	204.07	128.39	331.35	199.21	105.45	97.028	224.72	128.48	104.93	311.11	54.197	74.895	275.7	69.321	40.333	306.74	62.648	46.87	243.1	239.54	41.286	211.08	257.41	43.998	324.74	321.29	65.341	277.99	-127.72	1506.6	318.26	-178.31	1223.8	335.01
285	1.1833	61.774	1210.2	314.85	-44.155	1451	488.61	-68.273	1472.6	152.51	-56.117	1764.4	330.38	38.746	995.72	428.93	41.015	1008	196.96	-161.04	1021.6	351.21	-157.85	1028.6	257.83	-39.102	883.66	494.31	-38.147	900.68	126.29	-57.015	1064	474	-55.051	1087	165.35	-175.72	984.62	301.74	-76.782	687.17	482.43	-3.562	582.37	461.31	-73.617	597.13	467.13	1.1905	677.06	477.55	-52.626	489.66	456.08	-54.482	489.49	326.05	-221.61	402.24	455.85	-223.87	312.9	440.8	-278.49	350.2	449.98	-167.48	366.5	450.78	-395.81	233.8	418.22	-359.57	216.84	340.48	-436.57	258.25	364.62	-452.34	239.98	333.61	-460.89	242.29	395.45	NaN	NaN	NaN	-369.7	79.503	322.64	-329.87	37.334	368.61	11.145	692.69	144.87	118.69	633.45	174.4	52.8	614.24	165.97	81.67	710.62	148.09	99.852	521.82	189.57	93.436	523.97	314.52	66.045	335.39	187.29	140.91	257.03	216.41	70.082	263.07	204.04	130.4	331.22	199.1	105.66	97.161	224.91	128.69	104.83	311.28	54.269	74.943	275.78	69.357	40.347	306.78	62.702	46.951	243.13	239.61	41.209	211	257.51	43.622	324.78	321.45	64.773	278	-122.34	1507.3	317.96	-172.76	1224.5	334.69
